<svg version="1.1" id="Robot" xmlns="http://www.w3.org/2000/svg" xmlns:xlink="http://www.w3.org/1999/xlink" x="0px" y="0px" width="323.236px" height="433.332px" viewBox="0 0 323.236 433.332" enable-background="new 0 0 323.236 433.332" xml:space="preserve">
<g>
	<path fill="#406E80" stroke="#406E80" stroke-miterlimit="10" d="M155.82,268.699c0,0-44.875-3.635-73.398-12.159
		c0,0,4.194,19.899,5.661,22.171s34.236,31.691,36.81,32.688c2.563,0.989,30.934,4.734,30.934,4.734s28.425-3.745,30.992-4.734
		c2.563-0.993,35.395-30.417,36.856-32.688c1.473-2.271,5.622-22.171,5.622-22.171C200.772,265.064,155.82,268.699,155.82,268.699z"/>
	<path fill="#F96E10" stroke="#406E80" stroke-miterlimit="10" d="M226.341,162.536c-5.217-5.869-25.17-7.51-25.17-7.51
		l-45.891,11.135l-45.889-11.135c0,0-19.955,1.641-25.171,7.51c-5.223,5.869-10.238,88.162-3.594,93.901
		c6.416,5.533,68.865,12.274,73.865,12.752v0.023c0,0-0.078-0.006,0-0.014c0.079,0.008,0,0.014,0,0.014v-0.023
		c5-0.478,68.232-7.219,74.646-12.752C235.796,250.698,231.558,168.405,226.341,162.536z"/>
	<path fill="#F96E10" stroke="#406E80" stroke-miterlimit="10" d="M196.366,151.841c-3.064-1.565-2.869-0.782-2.869-0.782v1.826
		l-38.5,14.06l-38.5-14.06v-1.826c0,0,0.562-0.783-2.51,0.782c-3.066,1.565-11.433,10.042-10.41,14.346
		c1.023,4.304,51.778,27.168,51.778,27.168s50.607-22.864,51.635-27.168C208.014,161.884,199.433,153.406,196.366,151.841z"/>
	<path fill="#406E80" d="M193.727,151.059l-0.152,1.93l-38.212,13.193l-38.211-13.193l-0.151-1.93c0,0-2.399,0.457-1.581,1.972
		c0.795,1.465,37.578,16.045,39.578,17.016v0.052c0,0-0.039-0.011,0-0.026c0.039,0.015,0,0.026,0,0.026v-0.052
		c4-0.971,39.148-15.551,39.943-17.016C195.765,151.516,193.727,151.059,193.727,151.059z"/>
	<path fill="#FFFFFF" stroke="#75A0B7" stroke-miterlimit="10" d="M285.503,222.146"/>
	<path fill="#FFFFFF" stroke="#75A0B7" stroke-miterlimit="10" d="M155.624,424.808"/>
	<path fill="#F96E10" stroke="#406E80" stroke-miterlimit="10" d="M254.843,174.414c0,0,15.191,26.677,0.748,68.068l-24.233,8.248
		c0,0,3.894-46.792-3.089-83.752C227.945,165.297,254.843,174.414,254.843,174.414z"/>
	<path fill="#406E80" d="M123.639,159.34c0,0,0,0-9.103-4.988c-2.948-1.617-10.955,8.021-8.51,10.955
		c2.445,2.933,8.168,5.379,8.168,5.379L123.639,159.34z"/>
	<path fill="#8F6447" d="M196.119,154.17c0,0,7.429,5.411,8.541,9.469c1.112,4.058-8.541,7.046-8.541,7.046l-9.493-10.759
		L196.119,154.17z"/>
	<path fill="#406E80" d="M224.181,173.025c-20.729,11.343-39.668,14.256-39.668,14.256s-6.354,7.502-29.084,7.663
		c-22.732-0.161-30.394-7.663-30.394-7.663s-15.516-7.036-37.979-14.346c-2.543-0.826-5.314,26.467-5.417,27.423
		c-0.479,4.396,65.141-3.86,73.789-4.21c8.646,0.35,73.253,8.605,72.771,4.21C228.101,199.403,225.855,172.11,224.181,173.025z"/>
	<path fill="#406E80" d="M79.655,225.593c0,0-0.769,24.427,1.435,28.105c2.204,3.678,69.86,14.934,74.121,12.727
		C159.472,264.218,100.783,253.55,79.655,225.593z"/>
	<path fill="#406E80" d="M228.857,225.593c0,0,0.771,24.427-1.438,28.105c-2.206,3.678-69.854,14.934-74.121,12.727
		C149.04,264.218,207.729,253.55,228.857,225.593z"/>
	<path fill="#8F6447" d="M105.575,156.796c0,0-11.378,2.285-14.118,3.784l10.648,1.848
		C102.105,162.428,103.211,156.146,105.575,156.796z"/>
	<path fill="#406E80" d="M207.271,156.796c0,0,11.377,2.285,14.109,3.784l-10.646,1.848
		C210.739,162.428,209.633,156.146,207.271,156.796z"/>
	<path fill="#406E80" d="M253.177,176.276l-21.646-5.394l2.604,18.781c7.564-0.783,22.438,1.526,22.438,1.526
		C257.808,183.387,253.177,176.276,253.177,176.276z"/>
	<path fill="#406E80" d="M254.677,241.896l-20.479,6.813c0,0,0.828-11.645,0.242-16.604c0,0,12.607,0.593,23.374-5.732
		L254.677,241.896z"/>
	<path fill="#8F6447" d="M177.212,379.75"/>
	<g>
		<path fill="#FFFFFF" stroke="#75A0B7" stroke-miterlimit="10" d="M192.4,425.23c0.448-3,0.684-7.35,0.684-11.207
			c0-32.35-20.3-58.522-36.677-58.522c-16.478,0-36.678,26.158-36.678,58.503c0,3.861,0.23,8.229,0.683,11.229L192.4,425.23
			L192.4,425.23z"/>
		<path fill="#FFFFFF" stroke="#75A0B7" stroke-miterlimit="10" d="M175.162,362.23h-37.624l-4.803,11.316
			c0,0,16.495,3.021,23.867,3.021c7.371,0,23.356-2.979,23.356-2.979L175.162,362.23z"/>
		<path fill="#0D5980" stroke="#F96E10" stroke-miterlimit="10" d="M117.008,394.275c0,0,23.162,4.477,39.6,4.477
			c16.432,0,39.594-4.489,39.594-4.489l3.053,14.812l-43.042,5.291l-43.813-5.291L117.008,394.275z"/>
		<path fill="#0D5980" stroke="#F96E10" stroke-miterlimit="10" d="M199.497,425.484c0,0-25.927,7.848-43.5,7.848
			c-17.572,0-43.5-7.848-43.5-7.848v-16.315c0,0,32.174,3.962,43.5,3.962s43.5-3.962,43.5-3.962V425.484z"/>
		<path fill="#0D5980" stroke="#F96E10" stroke-miterlimit="10" d="M190.107,381.23l6.089,12.779c0,0-23.748,5.813-39.594,5.813
			c-15.852,0-39.6-5.894-39.6-5.894l5.725-12.709h67.38V381.23z"/>
		<path fill="#0D5980" stroke="#F96E10" stroke-miterlimit="10" d="M132.807,367.338l-10.08,14.516c0,0,20.435,5.366,33.479,5.366
			s34.042-5.366,34.042-5.366l-10.285-14.516l-23.356,3.104L132.807,367.338z"/>
		<path fill="#0D5980" stroke="#F96E10" stroke-miterlimit="10" d="M180.177,359.23h0.012l-0.572-11.181l-23.372,4.181h-0.04
			l-23.371-4.403l-0.573,11.044l-0.023-0.063l-2.024,12.316c0,0,15.031,2.805,25.997,2.805c10.965,0,26.422-2.956,26.422-2.956
			L180.177,359.23z"/>
		<polygon fill="#F96E10" points="190.946,329.713 156.098,340.85 120.286,329.406 132.576,350.767 156.111,357.534 156.19,357.73
			156.232,357.73 156.312,357.534 179.733,351.016 191.902,329.533 		"/>
		<polygon fill="#EEF3F6" points="138.213,353.404 140.952,354.931 139.583,371.011 136.882,369.308 		"/>
		<polygon fill="#EEF3F6" points="135.866,372.91 138.213,373.9 137.039,383.685 134.377,382.942 		"/>
		<polygon fill="#EEF3F6" points="132.323,385.096 134.377,385.877 133.351,396.887 130.976,395.855 		"/>
		<polygon fill="#EEF3F6" points="130.117,398.885 134.334,400.169 133.518,410.73 129.214,410.73 		"/>
		<polygon fill="#EEF3F6" points="126.978,414.244 125.989,426.846 131.997,428.524 131.997,414.359 		"/>
		<g>
			<polygon fill="#97B8C8" points="156.239,308.759 113.287,301.632 114.861,315.489 121.129,329.96 156.098,341.262
				191.349,329.96 197.615,315.448 199.19,301.613 			"/>
			<polygon fill="#0D5980" points="156.239,308.759 156.302,308.373 112.839,301.161 114.479,315.591 120.84,330.278
				156.098,342.938 191.638,330.278 197.998,315.552 199.638,301.144 156.174,308.373 156.239,308.759 156.302,308.373
				156.239,308.759 156.302,309.145 198.743,302.085 197.234,315.348 191.06,329.641 156.098,340.85 121.418,329.643
				115.243,315.387 113.734,302.104 156.239,309.155 156.302,309.145 			"/>
		</g>
	</g>
	<g id="Left-hand" class="Left-hand Robot-leftHand">
		<g id="Left-hand-inner" class="Left-hand-inner Robot-leftHandInner">
			<g>
				<path fill="#97B8C8" stroke="#0D5980" stroke-miterlimit="10" d="M18.193,282.973l20.646-57.649l10.926-15.833l-16.142-14.134
					l-5.833,16.635c0,0-14.627,68.47-15.534,71.604L18.193,282.973z"/>
				<path fill="#75A0B7" d="M41.307,204.168c0,0-8.451,4.841-10.983,13.184c-6.008,19.791-9.993,55.396-14.177,64.854l2.301,0.056
					l19.896-57.264l10.679-15.44L41.307,204.168z"/>
				<path fill="#EEF3F6" d="M33.731,200.159l5.025,2.211l2.551,1.798c0,0-4.933,5.938-8.933,13.857
					c-4,7.918-16.066,61.365-16.066,61.365l-2.47,0.202C13.84,279.596,27.977,215.831,33.731,200.159z"/>
			</g>
			<g id="Left-arm" class="Left-arm Robot-leftArm">
				<path fill="#97B8C8" stroke="#0D5980" stroke-miterlimit="10" d="M30.699,306.192c-11.521-17.146-12.416-22.109-12.416-22.109
					l-6.596,1.614l7.537,22.947c0,0,6.635,8.295,13.961,19.258c7.323,10.964,22.463,40.72,27.203,44.397
					c4.738,3.679,11.944-11.991,11.944-11.991C57.985,349.643,42.223,323.341,30.699,306.192z"/>
				<path fill="#F96E10" stroke="#406E80" stroke-miterlimit="10" d="M81.001,381.166c-4.961,5.215-13.104,5.521-18.186,0.684
					c-5.079-4.836-5.173-12.979-0.21-18.188c4.962-5.215,13.102-5.521,18.182-0.683C85.867,367.813,85.963,375.956,81.001,381.166z"/>
				<path fill="#406E80" d="M68.26,381.604c-1.228-0.438-2.334-1.117-3.282-2.021c-3.82-3.64-3.867-9.814-0.102-13.767
					c2.733-2.878,6.845-3.891,10.471-2.598c1.229,0.438,2.334,1.118,3.282,2.024c3.82,3.639,3.867,9.813,0.104,13.766
					C76.001,381.88,71.889,382.897,68.26,381.604z"/>
				<path fill="#EEF3F6" d="M27.095,307.378l38.263,52.66c0,0-5.8,2.958-6.218,4.953s-31.598-53.354-36.624-55.036L27.095,307.378z"/>
				<polygon fill="#406E80" stroke="#F96E10" stroke-miterlimit="10" points="69.969,386.298 91.928,411.533 101.793,391.084
					78.347,369.361 				"/>
				<polygon fill="#406E80" stroke="#F96E10" stroke-miterlimit="10" points="116.492,405.902 112.317,413.021 91.928,411.533
					98.907,397.064 				"/>
				<polygon fill="#F96E10" stroke="#406E80" stroke-miterlimit="10" points="81.746,364.488 67.566,384.863 97.096,404.889
					113.035,375.136 				"/>
				<polygon fill="#F96E10" stroke="#406E80" stroke-miterlimit="10" points="111.73,412.762 116.285,413.646 119.66,406.238
					115.518,403.381 				"/>
				<polygon fill="#F96E10" stroke="#406E80" stroke-miterlimit="10" points="127.962,388.343 120.795,404.701 97.101,404.871
					113.043,375.111 				"/>
				<polygon fill="#406E80" stroke="#F96E10" stroke-miterlimit="10" points="127.962,388.343 131.206,392.624 126.246,403.59
					120.795,404.701 				"/>
				<polygon fill="#406E80" points="90.039,368.129 75.924,389.511 67.566,384.863 81.746,364.488 				"/>
				<polygon fill="#8F6447" points="95.365,371.057 89.469,368.954 75.793,389.88 84.317,394.788 				"/>
				<polygon fill="#406E80" points="117.67,379.563 127.163,388.316 120.385,404.206 105.174,404.323 				"/>
				<g>
					<path fill="#F96E10" d="M14.453,307.682c0,0-6.345-12.324-4.666-22.473l11.706-0.594l9.26,14.931L14.453,307.682z"/>
					<path fill="#F96E10" stroke="#406E80" stroke-miterlimit="10" d="M28.257,303.682l2.248-4.31l-16.296,8.135
						c0,0,8.378,1.375,9.896,0.215c2.292-1.755,4.004-3.438,4.064-3.976L28.257,303.682z"/>
					<path fill="#406E80" d="M21.987,284.758l-11.955,0.107l-1.293,0.968c-0.852,5.157,0.881,9.356,2.246,13.93
						c1.363,4.577,2.271,7.875,2.271,7.875l1.094,0.146l8.989-3.495l7.89-5.576L21.987,284.758z M14.355,307.085
						c-0.435-0.955-1.854-4.21-3.024-8.361c-1.208-4.302-2.134-8.528-1.432-13.146l11.851-0.492l8.311,14.16L14.355,307.085z"/>
					<path fill="#8F6447" d="M10.96,285.943c0,0,1.774,15.008,4.043,17.688c1.274,1.505,4.802-0.943,4.802-0.943l-6.774-16.985
						L10.96,285.943z"/>
					<g>
						<path fill="#F96E10" d="M21.334,284.581l-1.886-1.335c-0.763-0.659-2.371-1.096-4.234-1.069
							c-2.582,0.035-5.496,3.613-5.496,3.613L21.334,284.581z"/>
						<path fill="#406E80" d="M21.388,284.361l-1.863-1.305h-0.001c-0.484-0.551-1.164-0.779-2.003-0.986
							c-0.711-0.172-1.531-0.314-2.4-0.316c-1.435,0.008-2.855,0.92-3.952,1.813c-1.09,0.906-1.844,1.787-1.852,1.797l-0.488,0.574
							l13.144-1.112L21.388,284.361z M10.333,285.171c0.394-0.399,0.969-0.95,1.641-1.46c0.972-0.743,2.141-1.375,3.146-1.363
							c0.824-0.003,1.594,0.101,2.249,0.258c0.79,0.191,1.77,0.813,1.77,0.813l2.063,1.126L10.333,285.171z"/>
					</g>
					<polygon fill="#406E80" points="20.298,285.833 26.373,299.617 28.957,298.159 21.749,286.352 					"/>
				</g>
			</g>
		</g>
		<path fill="#97B8C8" stroke="#0D5980" stroke-miterlimit="10" d="M52.995,181.158c-2.084-0.891-4.329-1.405-6.677-1.454
			c-11.376-0.238-20.826,10.37-21.104,23.693c-0.271,13.322,8.727,24.314,20.104,24.55c1.582,0.035,3.125-0.149,4.612-0.518
			C45.973,205.704,49.894,189.576,52.995,181.158z"/>
		<path fill="#97B8C8" d="M45.135,225.596c-9.938-0.354-17.821-10.291-17.574-22.151c0.124-5.885,2.182-11.36,5.796-15.418
			c3.521-3.955,8.104-6.077,12.913-5.977l0.223,0.006c1.188,0.042,2.365,0.222,3.521,0.538c-2.745,8.365-5.911,23.355-2.792,42.93
			c-0.621,0.063-1.241,0.09-1.856,0.076L45.135,225.596z"/>
		<path fill="#EEF3F6" d="M40.876,218.918c-4.712-2.48-7.979-8.483-7.84-15.358c0.096-4.583,1.662-8.804,4.41-11.888
			c1.573-1.767,3.418-3.005,5.381-3.645C41.039,195.8,39.743,206.302,40.876,218.918z"/>
	</g>
	<polygon fill="#608796" stroke="#406E80" stroke-miterlimit="10" points="200.854,300.438 156.492,308.416 112.129,300.438
		114.27,307.542 156.492,315.349 198.859,307.542 	"/>
	<path fill="#F96E10" stroke="#406E80" stroke-miterlimit="10" d="M55.261,174.414c0,0-15.192,26.677-0.748,68.068l24.233,8.248
		c0,0-3.893-46.792,3.089-83.752C82.159,165.297,55.261,174.414,55.261,174.414z"/>
	<path fill="#406E80" d="M56.962,175.493l21.65-5.394l-2.609,18.781c-7.563-0.783-22.432,1.527-22.432,1.527
		C52.333,182.604,56.962,175.493,56.962,175.493z"/>
	<path fill="#406E80" d="M55.463,241.111l20.485,6.818c0,0-0.829-11.646-0.242-16.604c0,0-12.614,0.59-23.374-5.736L55.463,241.111z
		"/>
	<g id="Right-hand" class="Right-hand Robot-rightHand">
		<g id="Right-hand-inner" class="Right-hand-inner Robot-rightHandInner">
			<path fill="#97B8C8" stroke="#0D5980" stroke-miterlimit="10" d="M277.088,195.901l7.438,12.39l3.131,13.824l32.338,68.635
				l-10.298,7.66c-2.108-6.405-14.233-49.043-37.797-73.967L277.088,195.901z"/>
			<g id="Right-arm" class="Right-arm Robot-rightArm">
				<g>
					<polygon fill="#F96E10" stroke="#406E80" stroke-miterlimit="10" points="225.896,367.943 205.619,351.85 205.658,367.174
						223.052,375.973 					"/>
					<polygon fill="#F96E10" stroke="#406E80" stroke-miterlimit="10" points="181.263,355.431 205.619,351.85 205.658,367.174
						186.141,366.214 					"/>
					<polygon fill="#F96E10" stroke="#406E80" stroke-miterlimit="10" points="174.143,384.185 186.141,366.214 181.263,355.431
											"/>
					<polygon fill="#406E80" points="205.658,357.489 221.112,366.457 222.522,365.264 205.619,351.85 					"/>
					<polygon fill="#406E80" points="183.108,359.511 205.658,357.489 205.619,351.85 181.263,355.431 					"/>
					<polygon fill="#406E80" points="174.143,384.185 183.108,359.511 181.263,355.431 					"/>
				</g>
				<g>
					<polygon fill="#F96E10" stroke="#406E80" stroke-miterlimit="10" points="230.769,381.208 221.419,405.349 213.699,392.11
						224.252,375.721 					"/>
					<polygon fill="#F96E10" stroke="#406E80" stroke-miterlimit="10" points="198.598,414.582 221.419,405.349 213.699,392.11
						197.351,402.813 					"/>
					<polygon fill="#F96E10" stroke="#406E80" stroke-miterlimit="10" points="177.907,393.384 197.351,402.813 198.598,414.582
											"/>
					<polygon fill="#406E80" stroke="#F96E10" stroke-miterlimit="10" points="218.626,400.657 229.185,381.149 231.185,380.862
						221.46,405.639 					"/>
					<polygon fill="#406E80" stroke="#F96E10" stroke-miterlimit="10" points="198.126,410.128 218.6,400.464 221.419,405.349
						198.598,414.582 					"/>
					<polygon fill="#406E80" stroke="#F96E10" stroke-miterlimit="10" points="177.907,393.384 198.126,410.128 198.598,414.582
											"/>
				</g>
				<path fill="#97B8C8" stroke="#0D5980" stroke-miterlimit="10" d="M230.614,367.23c0,0,46.996-30.938,69.688-50.601
					c22.692-19.655,16.041,2.646,16.041,2.646s-70.636,46.911-81.195,56.35L230.614,367.23z"/>
				<path fill="#406E80" d="M227.806,380.25c-0.938,0-1.844-0.199-2.689-0.593c-3.316-1.533-4.721-5.583-3.129-9.028
					c1.141-2.465,3.579-4.06,6.213-4.06c0.934,0,1.838,0.2,2.689,0.594c3.313,1.533,4.722,5.583,3.129,9.027
					C232.88,378.656,230.44,380.25,227.806,380.25z"/>
				<polygon fill="#EEF3F6" points="237.809,365.185 302.724,317.822 308.128,321.938 241.092,366.457 				"/>

				<ellipse transform="matrix(-0.9077 -0.4195 0.4195 -0.9077 278.2737 807.9651)" fill="#F96E10" stroke="#406E80" stroke-miterlimit="10" cx="227.977" cy="373.385" rx="9.756" ry="10.012"/>

				<circle fill="#F96E10" stroke="#406E80" stroke-miterlimit="10" cx="312.558" cy="313.572" r="9.031"/>
			</g>
			<path fill="#406E80" stroke="#406E80" stroke-miterlimit="10" d="M321.871,314.773c0,0,4.304-17.396-2.374-28.407l-13.412,5.653
				l-3.024,21.662L321.871,314.773z"/>
			<path fill="#F96E10" stroke="#406E80" stroke-miterlimit="10" d="M319.971,311.682c0,0,3.362-13.604-1.857-22.224l-10.492,4.423
				l-2.37,16.95L319.971,311.682z"/>
			<path fill="#F96E10" d="M306.085,292.021l1.279-2.604c0.446-1.179,1.952-2.623,4.016-3.707c2.865-1.504,7.653,0.433,7.653,0.433
				L306.085,292.021z"/>
			<path fill="#406E80" d="M319.181,285.779c-0.024-0.006-2.529-1.028-5.097-1.031c-0.997,0.001-2.01,0.154-2.892,0.617
				c-1.063,0.558-1.979,1.238-2.699,1.91c-0.707,0.66-1.223,1.445-1.479,2.033h-0.001l-1.201,2.459l0.435,0.625l13.406-6.564
				L319.181,285.779z M307.73,289.557c0.188-0.504,0.642-1.125,1.302-1.74c0.661-0.611,1.527-1.229,2.529-1.758
				c0.722-0.381,1.606-0.524,2.522-0.522c1.183-0.003,2.392,0.237,3.292,0.481c0.225,0.063,0.419,0.119,0.604,0.174l-11.063,5.021
				l0.812-1.639L307.73,289.557z"/>
			<polygon fill="#EEF3F6" points="285.162,220.852 313.146,283.23 309.692,283.23 280.663,225.404 			"/>
		</g>
		<path fill="#97B8C8" stroke="#0D5980" stroke-miterlimit="10" d="M258.047,182.348c2.104-0.847,4.356-1.313,6.705-1.313
			c11.38,0,20.605,10.802,20.605,24.127c0,13.326-9.229,24.128-20.605,24.128c-1.582,0-3.12-0.215-4.599-0.61
			C264.555,207.036,260.972,190.831,258.047,182.348z"/>
		<path fill="#97B8C8" d="M264.752,227.725c-0.921,0-1.848-0.082-2.77-0.242c3.838-20.341,0.667-35.882-1.969-44.167
			c1.549-0.472,3.137-0.711,4.732-0.711c10.499,0,19.042,10.122,19.042,22.562C283.794,217.604,275.251,227.725,264.752,227.725z"/>
		<path fill="#EEF3F6" d="M265.659,224.563c2.612-16.854,0.598-30.271-1.674-38.812c0.255-0.015,0.512-0.022,0.767-0.022
			c8.773,0,15.911,8.717,15.911,19.432C280.663,215.505,274.013,223.988,265.659,224.563z"/>
	</g>
	<g>

			<linearGradient id="SVGID_1_" gradientUnits="userSpaceOnUse" x1="-208.7112" y1="495.6318" x2="-189.7219" y2="495.6318" gradientTransform="matrix(1 0 0 1 354.2402 -482.9648)" class="SVGID_1_">
			<stop offset="0" style="stop-color:#F96E10"/>
			<stop offset="1" style="stop-color:#F96E10"/>
		</linearGradient>
		<polygon fill="url(#SVGID_1_)" stroke="#406E80" stroke-miterlimit="10" points="145.529,24.062 155.898,1.272 164.518,22.833
			"/>
		<polygon fill="#F96E10" stroke="#406E80" stroke-miterlimit="10" points="155.005,72.645 154.646,72.751 154.483,72.645
			116.89,84.56 118.063,116.193 154.646,126.278 191.425,116.193 192.598,84.56 		"/>
		<polygon fill="#406E80" points="118.651,116.376 154.744,129.703 191.815,116.009 154.646,126.278 		"/>

			<linearGradient id="SVGID_2_" gradientUnits="userSpaceOnUse" x1="-215.2356" y1="514.7051" x2="-181.4426" y2="514.7051" gradientTransform="matrix(1 0 0 1 354.2402 -482.9648)" class="SVGID_2_">
			<stop offset="0" style="stop-color:#F96E10"/>
			<stop offset="1" style="stop-color:#F96E10"/>
		</linearGradient>
		<path fill="url(#SVGID_2_)" stroke="#406E80" stroke-miterlimit="10" d="M139.005,42.133l1.562-16.087
			c16.579-6.41,12.178-6.925,30.517-1.123l1.715,17.672"/>
		<path fill="#F96E10" stroke="#406E80" stroke-miterlimit="10" d="M190.25,66.608c0,0-3.391-15.972-15.129-22.754
			c-9.844-5.687-17.479-5.504-19.688-5.297c-2.216-0.208-9.854-0.39-19.693,5.297c-11.74,6.782-15.13,22.754-15.13,22.754
			l-3.396,86.276l38.164,13.303l38.268-13.303L190.25,66.608z"/>
		<path fill="#406E80" d="M155.024,40.73c0.083,0,1.746,0,1.831,0c3.102,0,9.465,0.329,17.24,4.82
			c10.476,6.053,14.139,19.949,14.5,21.44l3.237,84.878l-36.012,12.487L155.024,40.73z"/>
		<path fill="#8F6447" d="M148.042,41.115c0,0-15.146,9.325-15.146,38.017c0,28.692,0.361,77.664,0.361,77.664l-3.074-1.173
			l-0.195-77.457C132.503,59.851,137.779,44.641,148.042,41.115z"/>
		<path fill="#406E80" stroke="#406E80" stroke-miterlimit="10" d="M102.19,99.374c0.676,4.296,2.613,7.685,2.729,7.685
			c0.852,0,0.979-3.866,0.299-8.161c-0.676-4.296-2.265-7.843-3.106-7.843C101.96,91.054,101.514,95.078,102.19,99.374z"/>
		<path fill="#406E80" d="M105.595,105.259c-0.606-1.299-1.451-3.471-1.854-6.008c-0.387-2.457-0.392-4.864-0.31-6.375
			c0.604,1.232,1.356,3.413,1.792,6.143C105.664,101.79,105.707,103.986,105.595,105.259z"/>
		<path fill="#F96E10" stroke="#406E80" stroke-miterlimit="10" d="M105.217,98.919c-0.592-3.944-2.154-7.225-3.104-7.976
			c0-0.015-0.002-0.026-0.002-0.026c4.104-4.715,14.477-6.357,14.477-6.357l0.782,31.449c0,0-9.518-4.981-12.328-8.72
			C105.782,106.956,105.862,103.217,105.217,98.919z"/>
		<path fill="#F19958" stroke="#406E80" stroke-miterlimit="10" d="M186.6,87.541c-1.696-1.363-23.114-8.995-30.395-8.995
			c-0.121,0-0.259,0.011-0.39,0.018c0-0.007-0.105-0.018-0.229-0.018c-7.271,0-28.523,7.632-30.225,8.995
			c-1.696,1.362-2.951,11.448,0.57,20.715c3.521,9.267,29.814,11.176,29.814,11.176s0.063-0.014,0.063-0.037
			c0.135,0.023,0.225,0.037,0.225,0.037s26.38-1.909,29.902-11.176C189.469,98.989,188.294,88.903,186.6,87.541z"/>
		<path fill="#88B7D2" d="M186.006,88.906c-1.106-0.894-12.009-4.842-20.009-6.811v34.058c8-1.175,17.396-3.746,19.381-8.974
			C188.485,99.005,187.5,90.108,186.006,88.906z"/>
		<path fill="#F8C9A6" d="M143.997,81.633c-3,0.828-6,1.811-9,2.767v29.713c3,1.066,7,1.864,9,2.454V81.633z"/>
		<path fill="#62A0C4" d="M134.997,83.907c-5,1.615-8.224,3.101-8.886,3.634c-1.695,1.362-2.973,11.448,0.549,20.715
			c1.089,2.868,3.337,5.03,8.337,6.649V83.907z"/>
		<path fill="#F96E10" d="M119.585,114.578l-1.087-29.299l35.749-11.331l0.149,0.098l0.595-0.178l35.998,11.41l-1.087,29.297
			l-35.255,9.668L119.585,114.578z M155.594,76.568c-7.511,0-29.131,7.673-31.198,9.34c-2.563,2.057-3.536,12.951,0.088,22.491
			c3.767,9.915,28.375,11.977,31.168,12.181l0.245,0.018l0.043-0.011l0.038,0.006l0.184-0.013
			c2.803-0.204,27.485-2.265,31.252-12.181c3.636-9.568,2.704-20.454,0.17-22.491c-2.072-1.667-23.794-9.34-31.369-9.34
			c-0.104,0-0.225,0.006-0.343,0.013C155.781,76.572,155.69,76.568,155.594,76.568z"/>
		<path fill="#8F6447" d="M176.733,117.376c5.284-1.904,9.88-4.678,11.407-8.699c0.553-1.453,1.005-2.954,1.357-4.462l-0.356,9.758
			L176.733,117.376z M190.053,89.426c-0.437-1.958-1.106-3.423-1.983-4.128c-0.086-0.069-0.202-0.146-0.349-0.234l2.466,0.781
			L190.053,89.426z M154.129,74.807l0.146,0.093l0.713-0.212l4.286,1.359c-1.156-0.168-2.189-0.261-3.063-0.261
			c-0.104,0-0.217,0.004-0.332,0.011c-0.091-0.007-0.186-0.011-0.285-0.011c-2.467,0-6.272,0.76-10.418,1.858L154.129,74.807z"/>
		<path fill="#406E80" d="M186.462,87.537c-1.689-1.364-23.108-8.996-30.388-8.996c-0.121,0-0.26,0.012-0.392,0.019
			c0-0.006-0.104-0.019-0.229-0.019c-7.271,0-28.521,7.632-30.223,8.996c-1.695,1.362-2.951,11.447,0.565,20.715
			c3.521,9.268,29.818,11.176,29.818,11.176s0.063-0.015,0.063-0.037c0.138,0.022,0.225,0.037,0.225,0.037
			s26.381-1.908,29.902-11.176C189.331,98.984,188.156,88.899,186.462,87.537z M184.321,107.695
			c-2.572,6.773-21.354,9.609-28.553,10.158c0,0-26.28-3.798-28.696-10.158c-3.406-8.959-1.905-17.929-0.976-18.976
			c1.636-1.165,18.896-7.779,27.896-8.542v0.026l1.845-0.09c0.063-0.004,0.147-0.009,0.202-0.009c6.987,0,27.646,7.379,29.438,8.661
			C186.34,89.758,187.734,98.716,184.321,107.695z"/>
		<path fill="none" stroke="#406E80" stroke-miterlimit="10" d="M127.209,107.7c-3.398-8.959-1.724-17.929-0.793-18.975
			c1.635-1.166,19.081-7.779,28.081-8.542v0.025l1.664-0.089c0.063-0.004,0.058-0.009,0.111-0.009
			c6.981,0,27.594,7.379,29.392,8.662c0.858,0.991,2.248,9.949-1.163,18.928c-2.567,6.773-21.376,9.61-28.574,10.157
			C155.926,117.857,129.625,114.06,127.209,107.7z"/>
		<path fill="#8F6447" d="M149.413,23.452l-0.636,14.794c0.904-0.477,0.904-0.477,0.904-0.477l0.654-14.88
			C150.342,22.89,150.416,22.767,149.413,23.452z"/>
		<path fill="#F96E10" d="M185.313,120.508l3.771-1.468l0.363,4.108C189.45,123.148,187.7,120.6,185.313,120.508z"/>
		<path fill="#F96E10" d="M183.693,80.083l4.304,1.07v-6.521C187.997,74.633,188.477,78.994,183.693,80.083z"/>
		<path fill="#406E80" d="M106.466,99.462c0,0,5.531,4.516,9.531,4.581v9.782c0,0-10.211-5.38-9.559-6.766
			C107.091,105.673,106.466,99.462,106.466,99.462z"/>
		<path fill="#F96E10" d="M104.695,91.054c0,0,7.162-4.054,10.173-4.096c1.589-0.023,0.847,1.825,0.782,2.478
			c-0.064,0.652-10.001,2.673-10.001,2.673L104.695,91.054z"/>
		<path fill="#406E80" stroke="#406E80" stroke-miterlimit="10" d="M206.991,99.374c-0.677,4.296-2.613,7.685-2.729,7.685
			c-0.853,0-0.979-3.866-0.306-8.161c0.682-4.296,2.271-7.843,3.111-7.843C207.22,91.054,207.667,95.078,206.991,99.374z"/>
		<path fill="#406E80" d="M203.585,105.259c0.607-1.299,1.451-3.471,1.854-6.008c0.387-2.457,0.393-4.864,0.311-6.375
			c-0.604,1.232-1.358,3.413-1.792,6.143C203.517,101.79,203.475,103.986,203.585,105.259z"/>
		<path fill="#F96E10" stroke="#406E80" stroke-miterlimit="10" d="M203.963,98.919c0.598-3.944,2.161-7.225,3.109-7.976
			c0.002-0.015,0.002-0.026,0.002-0.026c-4.108-4.715-14.477-6.357-14.477-6.357l-0.782,31.449c0,0,9.519-4.981,12.328-8.72
			C203.398,106.956,203.318,103.217,203.963,98.919z"/>
		<path fill="#406E80" d="M202.621,99.462c0,0-4.624,4.516-9.624,4.581v9.782c0,0,10.257-5.38,9.605-6.766
			C201.95,105.673,202.621,99.462,202.621,99.462z"/>
		<path fill="#F96E10" d="M204.484,91.054c0,0-7.161-4.054-10.172-4.096c-1.591-0.023-0.854,1.825-0.782,2.478
			c0.063,0.652,10.001,2.673,10.001,2.673L204.484,91.054z"/>
		<g>
			<path fill="#406E80" d="M128.608,130.321c-0.041-14.26-0.19-40.219-0.189-51.775c0-18.255,8.56-29.936,14.566-35.891
				c-11.534,4.3-18.82,13.362-19.906,25.208c-0.546,5.967-2.597,39.407-3.35,60.371L128.608,130.321z"/>
			<path fill="#406E80" d="M120.216,138.31c-0.192,5.803-0.424,10.984-0.481,12.906l8.879,3.811
				c-0.011-2.847-0.029-8.055-0.051-14.609L120.216,138.31z"/>
		</g>
	</g>
	<g>
		<polyline fill="#0D5980" points="152.944,216.125 157.691,235.148 158.116,235.042 153.369,216.019 		"/>
		<polyline fill="#0D5980" points="146.833,235.379 163.875,222.521 163.612,222.172 146.57,235.029 		"/>
		<polyline fill="#0D5980" points="149.276,226.557 166.101,233.734 166.272,233.333 149.448,226.152 		"/>
		<circle fill="#0D5980" cx="153.156" cy="216.072" r="3.633"/>
		<circle fill="#FFFFFF" cx="152.343" cy="214.565" r="0.445"/>
		<circle fill="#0D5980" cx="156.589" cy="227.379" r="5.381"/>
		<circle fill="#0D5980" cx="166.01" cy="233.476" r="2.492"/>
		<circle fill="#0D5980" cx="163.743" cy="222.347" r="1.622"/>
		<circle fill="#0D5980" cx="157.904" cy="235.096" r="1.092"/>
		<circle fill="#0D5980" cx="146.701" cy="235.204" r="1.998"/>
		<circle fill="#0D5980" cx="149.349" cy="226.27" r="0.818"/>
		<circle fill="#FFFFFF" cx="146.701" cy="234.004" r="0.445"/>
		<circle fill="#FFFFFF" cx="165.365" cy="232.315" r="0.445"/>
		<circle fill="#FFFFFF" cx="155.531" cy="224.428" r="1.156"/>
	</g>
	<polygon fill="#406E80" points="144.082,167.678 149.721,187.24 153.132,188.88 153.375,171.371 	"/>
	<polygon fill="#406E80" points="153.375,171.371 155.233,172.11 185.313,160.58 193.642,171.535 155.428,190.407 153.132,188.88
		"/>
	<polygon fill="#8F6447" points="237.983,197.487 243.985,199.64 249.987,197.795 	"/>
	<polygon fill="#8F6447" points="51.997,208.442 51.997,217.051 64,208.75 	"/>
</g>
</svg>